# AST/ASF file generated using VICON BodyLanguage
# -----------------------------------------------
:version 1.10
:name VICON
:units
  mass 1.0
  length 0.45
  angle deg
:documentation
   .ast/.asf automatically generated from VICON data using
   VICON BodyBuilder and BodyLanguage model FoxedUp or BRILLIANT.MOD
:root
   order TX TY TZ RX RY RZ
   axis XYZ
   position 0 0 0  
   orientation 0 0 0 
:bonedata
  begin
     id 1 
     name lhipjoint
     direction 0.611804 -0.747784 0.257906 
     length 2.29243 
     axis 0 0 0  XYZ
  end
  begin
     id 2 
     name lfemur
     direction 0.34202 -0.939693 0  
     length 7.31159  
     axis 0 0 20  XYZ
    dof rx ry rz
    limits (-160.0 20.0)
           (-70.0 70.0)
           (-60.0 70.0)
  end
  begin
     id 3 
     name ltibia
     direction 0.34202 -0.939693 0   
     length 7.33391   
     axis 0 0 20   XYZ
    dof rx
    limits (-10.0 170.0)
  end
  begin
     id 4 
     name lfoot
     direction 0.122263 -0.335914 0.933924   
     length 1.76083   
     axis -90 7.62852e-016 20   XYZ
    dof rx rz
    limits (-45.0 90.0)
           (-70.0 20.0)
  end
  begin
     id 5 
     name ltoes
     direction 1.53533e-011 -4.2177e-011 1   
     length 0.879206   
     axis -90 7.62852e-016 20   XYZ
    dof rx
    limits (-90.0 20.0)
  end
  begin
     id 6 
     name rhipjoint
     direction -0.646469 -0.721248 0.248754   
     length 2.37677  
     axis 0 0 0  XYZ 
  end
  begin
     id 7 
     name rfemur
     direction -0.34202 -0.939693 0   
     length 7.18623   
     axis 0 0 -20   XYZ
    dof rx ry rz
    limits (-160.0 20.0)
           (-70.0 70.0)
           (-70.0 60.0)
  end
  begin
     id 8 
     name rtibia
     direction -0.34202 -0.939693 0   
     length 7.36567   
     axis 0 0 -20   XYZ
    dof rx
    limits (-10.0 170.0)
 end
 begin
     id 9 
     name rfoot
     direction -0.126681 -0.348054 0.928876   
     length 1.71902  
     axis -90 -7.62852e-016 -20   XYZ
    dof rx rz
    limits (-45.0 90.0)
           (-20.0 70.0)
  end
  begin
     id 10 
     name rtoes
     direction -1.53551e-011 -4.21898e-011 1   
     length 0.857792   
     axis -90 -7.62852e-016 -20   XYZ
    dof rx
    limits (-90.0 20.0)
  end
  begin
     id 11 
     name lowerback
     direction 0.0106509 0.999778 0.0181844   
     length 2.07668   
     axis 0 0 0   XYZ
    dof rx ry rz
    limits (-20.0 45.0)
           (-30.0 30.0)
           (-30.0 30.0)
  end
  begin
     id 12 
     name upperback
     direction -0.00456018 0.999989 -0.000590935   
     length 2.08011   
     axis 0 0 0   XYZ
    dof rx ry rz
    limits (-20.0 45.0)
           (-30.0 30.0)
           (-30.0 30.0)
  end
  begin
     id 13 
     name thorax
     direction -0.00910382 0.999916 -0.00923765   
     length 2.07397   
     axis 0 0 0   XYZ
    dof rx ry rz
    limits (-20.0 45.0)
           (-30.0 30.0)
           (-30.0 30.0)
  end
  begin
     id 14 
     name lowerneck
     direction 0.00171967 0.99778 0.0665733   
     length 1.67556   
     axis 0 0 0   XYZ
    dof rx ry rz
    limits (-20.0 45.0)
           (-30.0 30.0)
           (-30.0 30.0)
  end
  begin
     id 15 
     name upperneck
     direction -0.0143166 0.991302 -0.130828   
     length 1.68462   
     axis 0 0 0   XYZ
    dof rx ry rz
    limits (-20.0 45.0)
           (-30.0 30.0)
           (-30.0 30.0)
  end
  begin
     id 16
     name head
     direction -0.00606378 0.998665 -0.0512995  
     length 1.69269  
     axis 0 0 0   XYZ
    dof rx ry rz
    limits (-20.0 45.0)
           (-30.0 30.0)
           (-30.0 30.0)
  end
  begin
     id 17 
     name lclavicle
     direction 0.9638 0.179341 0.197297  
     length 4.12888  
     axis 0 0 0   XYZ
    dof ry rz
    limits (-20.0 10.0)
           (0.0 20.0)
  end
  begin
     id 18 
     name lhumerus
     direction 1 -4.48972e-011 -2.47351e-027   
     length 5.01834   
     axis -180 -30 -90   XYZ
    dof rx ry rz
    limits (-60.0 90.0)
           (-90.0 90.0)
           (-90.0 90.0)
  end
  begin
     id 19
     name lradius
     direction 1 -4.48965e-011 1.51591e-026   
     length 3.4869   
     axis -180 -30 -90   XYZ
    dof rx
    limits (-10.0 170.0)
  end
  begin
     id 20
     name lwrist
     direction 1 -4.48957e-011 2.70032e-026   
     length 1.74345   
     axis -1.81515e-014 90 90   XYZ
    dof ry
    limits (-180.0 0.0)
 end
  begin
     id 21 
     name lhand
     direction 1 -4.48951e-011 5.40064e-026   
     length 0.76799   
     axis -3.44607e-014 90 90   XYZ
    dof rx rz
    limits (-90.0 90.0)
           (-45.0 45.0)
  end
  begin
     id 22 
     name lfingers
     direction 1 -4.48971e-011 1.08013e-025   
     length 0.619174   
     axis -6.89214e-014 90 90   XYZ
    dof rx
    limits (0.0 90.0)
  end
  begin
     id 23
     name lthumb
     direction 0.707107 -6.34931e-011 0.707107   
     length 0.889013   
     axis -90 45 2.85299e-015   XYZ
    dof rx rz
    limits (-45.0 45.0)
           (-45.0 45.0)
  end
  begin
     id 24 
     name rclavicle
     direction -0.961409 0.252588 0.109054   
     length 4.04305  
     axis 0 0 0   XYZ 
    dof ry rz
    limits (-10.0 20.0)
           (-20.0 0.0)
  end
  begin
     id 25 
     name rhumerus
     direction -1 -4.4897e-011 1.33872e-017  
     length 4.70164   
     axis -180 30 90   XYZ
    dof rx ry rz
    limits (-90.0 60.0)
           (-90.0 90.0)
           (-90.0 90.0)
  end
  begin
     id 26 
     name rradius
     direction -1 -4.48954e-011 1.83844e-026   
     length 3.49911   
     axis -180 30 90   XYZ
    dof rx
    limits (-10.0 170.0)
  end
  begin
     id 27 
     name rwrist
     direction -1 -4.49008e-011 2.70032e-026   
     length 1.74955   
     axis -1.81515e-014 -90 -90   XYZ
    dof ry
    limits (-180.0 0.0)
  end
  begin
     id 28
     name rhand
     direction -1 -4.48916e-011 5.40064e-026   
     length 0.739335   
     axis -3.44607e-014 -90 -90   XYZ
    dof rx rz
    limits (-90.0 90.0)
           (-45.0 45.0)
  end
  begin
     id 29
     name rfingers
     direction -1 -4.48987e-011 1.08013e-025   
     length 0.596071   
     axis -6.89214e-014 -90 -90   XYZ
    dof rx
    limits (0.0 90.0)
  end
  begin
     id 30
     name rthumb
     direction -0.707107 -6.34935e-011 0.707107   
     length 0.855843   
     axis -90 -45 -2.85299e-015   XYZ
    dof rx rz
    limits (-45.0 45.0)
           (-45.0 45.0)
  end
:hierarchy
  begin
    root lhipjoint rhipjoint lowerback
    lhipjoint lfemur
    lfemur ltibia
    ltibia lfoot
    lfoot ltoes
    rhipjoint rfemur
    rfemur rtibia
    rtibia rfoot
    rfoot rtoes
    lowerback upperback
    upperback thorax
    thorax lowerneck lclavicle rclavicle
    lowerneck upperneck
    upperneck head
    lclavicle lhumerus
    lhumerus lradius
    lradius lwrist
    lwrist lhand lthumb
    lhand lfingers
    rclavicle rhumerus
    rhumerus rradius
    rradius rwrist
    rwrist rhand rthumb
    rhand rfingers
  end

#!OML:ASF I:\salsa\salsa 7_09\Patient 1\Session 1\dancermale.ASF
:FULLY-SPECIFIED
:DEGREES
1711
root 5.31597 17.1543 -4.16661 -2332.79 -211.81 1622.03
lowerback 172.449 -176.263 -178.181
upperback -1.39836 -5.1044 -0.103881
thorax 2.60541 -2.52358 -1.60883
lowerneck -6.38864 -5.85935 -3.07423
upperneck 20.6035 -6.87187 -3.56615
head 7.35622 -3.80378 -1.20703
rclavicle 6.09834e-014 5.76476e-015
rhumerus -50.3028 -15.1088 -65.1251
rradius 117.55
rwrist -40.3517
rhand -13.3246 -15.2596
rfingers 7.12502
rthumb 12.7803 -44.8484
lclavicle 6.09834e-014 5.76476e-015
lhumerus -15.5503 -14.3117 74.0041
lradius 128.282
lwrist 74.6581
lhand -15.3507 58.7409
lfingers 7.12502
lthumb 10.8265 -991.558
rfemur -25.6231 -12.7673 26.9088
rtibia 27.015
rfoot -20.5861 -32.4628
rtoes 37.714
lfemur -5.96943 11.1666 -26.3181
ltibia 27.3246
lfoot -21.4035 11.797
ltoes -11.6593
1712
root 5.42489 17.1439 -4.03314 -2333.14 -211.179 1621.99
lowerback 172.245 -176.057 -177.784
upperback -1.27035 -5.41648 -0.1403
thorax 2.7988 -2.67144 -1.91497
lowerneck -6.4641 -5.6076 -2.97018
upperneck 20.8054 -6.47026 -3.88854
head 7.42177 -3.63602 -1.30252
rclavicle -1.91113e-014 -1.21259e-014
rhumerus -52.6978 -16.2941 -62.2813
rradius 118.247
rwrist -39.4748
rhand -11.1662 -13.8582
rfingers 7.12502
rthumb 14.8604 -43.3053
lclavicle -1.91113e-014 -1.21259e-014
lhumerus -16.7545 -11.6329 73.1051
lradius 128.354
lwrist 75.9192
lhand -13.4641 59.5075
lfingers 7.12502
lthumb 12.6458 -990.895
rfemur -24.0819 -12.5551 26.5363
rtibia 26.1808
rfoot -20.8424 -31.6591
rtoes 37.5234
lfemur -6.41901 12.2424 -25.9179
ltibia 30.1852
lfoot -20.8954 10.9741
ltoes -14.6699
1713
root 5.51888 17.1386 -3.90354 -2333.32 -209.96 1621.59
lowerback 171.804 -176.07 -177.285
upperback -1.25316 -5.45534 -0.0340143
thorax 3.02389 -2.68111 -2.12088
lowerneck -6.52333 -5.37503 -2.78737
upperneck 21.0486 -6.09872 -4.24197
head 7.49552 -3.48034 -1.42398
rclavicle -5.56178e-014 5.56597e-015
rhumerus -55.0035 -17.413 -59.2261
rradius 118.502
rwrist -38.6028
rhand -9.13747 -12.1347
rfingers 7.12502
rthumb 16.8141 -41.4267
lclavicle -5.56178e-014 5.56597e-015
lhumerus -18.1624 -9.26837 72.5811
lradius 128.296
lwrist 77.0036
lhand -11.7296 60.4825
lfingers 7.12502
lthumb 14.3176 -990.031
rfemur -23.331 -12.2764 26.8391
rtibia 25.6819
rfoot -19.815 -31.1325
rtoes 35.473
lfemur -7.80385 13.7733 -25.2856
ltibia 33.9634
lfoot -19.8506 10.2205
ltoes -19.979
1714
root 5.60407 17.1393 -3.78015 -2333.52 -208.546 1621.21
lowerback 171.601 -176.166 -176.875
upperback -1.28368 -5.37337 0.0527966
thorax 3.07996 -2.63513 -2.26436
lowerneck -6.58332 -5.17539 -2.35152
upperneck 21.327 -5.76743 -4.79165
head 7.56666 -3.343 -1.65485
rclavicle 1.01192e-013 5.96354e-015
rhumerus -57.3829 -18.5813 -55.746
rradius 118.262
rwrist -37.504
rhand -5.36591 -10.4466
rfingers 7.12502
rthumb 20.4418 -39.3906
lclavicle 1.01192e-013 5.96354e-015
lhumerus -19.7848 -7.2758 72.3946
lradius 128.151
lwrist 77.4337
lhand -10.2369 61.7728
lfingers 7.12502
lthumb 15.7555 -811.151
rfemur -22.6822 -11.7594 27.1047
rtibia 25.42
rfoot -19.7315 -30.2271
rtoes 35.0775
lfemur -9.54814 15.1832 -24.6333
ltibia 38.2485
lfoot -18.251 8.26078
ltoes -19.9384
1715
root 5.64714 17.1331 -3.66422 -2333.74 -205.685 1621.15
lowerback 172.052 -176.632 -177.215
upperback -1.38515 -4.7077 0.0566174
thorax 2.7902 -2.3153 -1.97092
lowerneck -6.52374 -4.96005 -1.84576
upperneck 21.5355 -5.45018 -5.24691
head 7.59634 -3.19739 -1.86307
rclavicle -5.09347e-014 -7.95139e-016
rhumerus -59.6649 -19.8885 -52.3279
rradius 117.451
rwrist -36.0045
rhand -0.606142 -8.62102
rfingers 7.12502
rthumb 25.0097 -37.0039
lclavicle -5.09347e-014 -7.95139e-016
lhumerus -21.6998 -5.91993 72.3927
lradius 127.852
lwrist 77.6896
lhand -10.6557 61.884
lfingers 7.12502
lthumb 15.3522 -811.294
rfemur -22.1594 -9.61907 27.15
rtibia 25.6411
rfoot -19.9076 -29.4112
rtoes 35.0739
lfemur -11.9376 18.3228 -24.0436
ltibia 43.9567
lfoot -15.9654 6.01324
ltoes -19.286
1716
root 5.73113 17.1405 -3.54336 -2334.17 -204.743 1620.76
lowerback 172.102 -176.427 -176.696
upperback -1.36739 -5.02472 0.101694
thorax 2.72389 -2.47003 -2.23773
lowerneck -6.39542 -4.67432 -1.657
upperneck 21.6209 -5.08083 -5.2909
head 7.60042 -3.01305 -1.87696
rclavicle 8.80554e-016 -9.93923e-015
rhumerus -61.4784 -20.3463 -49.7435
rradius 116.521
rwrist -35.9829
rhand 1.31024 -6.73573
rfingers 7.12502
rthumb 26.8447 -34.8501
lclavicle 8.80554e-016 -9.93923e-015
lhumerus -23.8095 -4.53544 72.5422
lradius 127.297
lwrist 76.9777
lhand -10.679 62.2001
lfingers 7.12502
lthumb 15.3297 -811.612
rfemur -20.9968 -9.55651 27.4466
rtibia 25.0432
rfoot -19.5939 -28.7658
rtoes 34.1521
lfemur -14.4203 19.68 -23.1282
ltibia 49.9492
lfoot -12.7071 3.49683
ltoes -19.6565
1717
root 5.78278 17.1328 -3.44114 -2334.35 -202.426 1620.59
lowerback 172.516 -176.531 -176.602
upperback -1.52123 -4.87469 0.0841228
thorax 2.33443 -2.40569 -2.25773
lowerneck -6.20709 -4.3058 -1.49882
upperneck 21.658 -4.62857 -5.18117
head 7.58544 -2.77728 -1.8266
rclavicle 2.60998e-014 -8.34896e-015
rhumerus -62.9846 -20.423 -47.7369
rradius 115.545
rwrist -35.5764
rhand 3.07603 -5.36088
rfingers 7.12502
rthumb 28.5332 -33.204
lclavicle 2.60998e-014 -8.34896e-015
lhumerus -26.342 -3.33287 72.6748
lradius 126.725
lwrist 75.7413
lhand -10.4754 62.4563
lfingers 7.12502
lthumb 15.5258 -811.853
rfemur -20.2669 -8.238 27.6774
rtibia 24.8078
rfoot -19.3509 -27.9639
rtoes 33.2844
lfemur -17.3093 21.8906 -22.4187
ltibia 55.9048
lfoot -8.66527 0.838463
ltoes -15.7736
